<svg width="175" height="175" viewBox="0 0 175 175" fill="none" xmlns="http://www.w3.org/2000/svg">
<circle cx="87.5" cy="87.5" r="87.5" fill="url(#paint0_radial_316_15)"/>
<path fill-rule="evenodd" clip-rule="evenodd" d="M120.16 119.587V79.4236C120.16 76.7245 119.069 74.1401 117.135 72.2576L97.6604 53.3025C95.7934 51.4853 93.2909 50.4685 90.6855 50.4685H62.5612C59.506 50.4685 56.5759 51.6822 54.4156 53.8426C52.2552 56.0029 51.0415 58.933 51.0415 61.9882V119.587C51.0415 122.642 52.2552 125.572 54.4156 127.733C56.5759 129.893 59.506 131.107 62.5612 131.107H108.64C111.695 131.107 114.625 129.893 116.786 127.733C118.946 125.572 120.16 122.642 120.16 119.587Z" stroke="#0B682F" stroke-width="3" stroke-linecap="round" stroke-linejoin="round"/>
<path d="M94.6035 51.1461V63.479C94.6035 66.4983 95.86 69.3939 98.0967 71.5289C100.333 73.6638 103.367 74.8632 106.53 74.8632H118.998" stroke="#0B682F" stroke-width="3" stroke-linecap="round" stroke-linejoin="round"/>
<circle cx="122.677" cy="104.001" r="13.5526" fill="#0B682F"/>
<path d="M127.452 99.582C127.674 99.3718 127.97 99.2557 128.278 99.258C128.585 99.2603 128.879 99.3809 129.098 99.5944C129.317 99.8078 129.445 100.097 129.453 100.402C129.461 100.707 129.349 101.003 129.142 101.227L122.84 109.047C122.732 109.163 122.601 109.256 122.455 109.32C122.31 109.385 122.153 109.419 121.994 109.422C121.835 109.425 121.676 109.396 121.529 109.337C121.381 109.278 121.247 109.19 121.134 109.078L116.955 104.932C116.839 104.824 116.745 104.694 116.681 104.55C116.616 104.406 116.581 104.25 116.578 104.093C116.576 103.935 116.605 103.778 116.664 103.632C116.724 103.485 116.813 103.353 116.925 103.241C117.038 103.129 117.172 103.041 117.319 102.982C117.467 102.923 117.625 102.894 117.784 102.897C117.943 102.9 118.099 102.934 118.245 102.998C118.39 103.063 118.521 103.155 118.629 103.271L121.937 106.551L127.422 99.6165C127.432 99.6044 127.442 99.5929 127.453 99.582H127.452Z" fill="#F1E75B"/>
<path d="M71.1588 111.494V114.034H67.3988V117.854H64.7188V114.034H60.9588V111.494H64.7188V107.654H67.3988V111.494H71.1588ZM74.7302 105.254H83.6702V107.714H77.2902V111.034C77.5702 110.727 77.9568 110.474 78.4502 110.274C78.9435 110.06 79.5435 109.954 80.2502 109.954C80.9568 109.954 81.6235 110.1 82.2502 110.394C82.8902 110.687 83.3768 111.08 83.7102 111.574C84.3768 112.534 84.7102 113.6 84.7102 114.774C84.7102 116.32 84.2635 117.56 83.3702 118.494C82.4902 119.414 81.2635 119.874 79.6902 119.874C78.1168 119.874 76.8768 119.507 75.9702 118.774C75.0768 118.027 74.5502 117.054 74.3902 115.854H77.1502C77.2702 116.374 77.5435 116.787 77.9702 117.094C78.4102 117.4 78.9902 117.554 79.7102 117.554C80.4435 117.554 81.0102 117.307 81.4102 116.814C81.8102 116.32 82.0102 115.667 82.0102 114.854C82.0102 114.04 81.8035 113.414 81.3902 112.974C80.9902 112.534 80.4502 112.314 79.7702 112.314C78.4902 112.314 77.7035 112.827 77.4102 113.854H74.7302V105.254Z" fill="#0B682F"/>
<line x1="62.5122" y1="72.5" x2="85.9398" y2="72.5" stroke="#0B682F" stroke-width="3" stroke-linecap="round"/>
<line x1="62.5122" y1="96.8947" x2="85.9398" y2="96.8947" stroke="#0B682F" stroke-width="3" stroke-linecap="round"/>
<path d="M61.6899 80.7764H100.315" stroke="#0B682F" stroke-width="3" stroke-linecap="round"/>
<path d="M61.6899 88.908H100.315" stroke="#0B682F" stroke-width="3" stroke-linecap="round"/>
<defs>
<radialGradient id="paint0_radial_316_15" cx="0" cy="0" r="1" gradientUnits="userSpaceOnUse" gradientTransform="translate(87.5 87.5) rotate(90.0996) scale(287.5)">
<stop stop-color="#F0ECB4"/>
<stop offset="0.237146" stop-color="#F2E52D"/>
<stop offset="0.394591" stop-color="#FFA400"/>
</radialGradient>
</defs>
</svg>
